<?xml version="1.0" encoding="utf-8"?>
<!-- Generator: Adobe Illustrator 25.1.0, SVG Export Plug-In . SVG Version: 6.00 Build 0)  -->
<svg version="1.1" id="Layer_1" xmlns="http://www.w3.org/2000/svg" xmlns:xlink="http://www.w3.org/1999/xlink" x="0px" y="0px"
	 viewBox="0 0 1920 1080" style="enable-background:new 0 0 1920 1080;" xml:space="preserve">
<style type="text/css">
	.st0{fill:#1147A5;}
	.st1{fill:#62B01E;}
</style>
<g>
	<path class="st0" d="M795.07,381.83h30.58V498.8h-30.58V381.83z"/>
	<path class="st0" d="M1056.73,382v116.8h-30.58v-96.75l-56.58,96.75h-36.88l-56.58-96.75v96.75h-30.58V382h51.51l54.18,90.23
		l54.01-90.23H1056.73z"/>
	<path class="st0" d="M835.56,517.39v116.8h-30.58v-96.75l-56.58,96.75h-36.89l-56.58-96.75v96.75h-30.58v-116.8h51.51l54.18,90.23
		l54.01-90.23H835.56z"/>
	<path class="st0" d="M931.43,517.22h39.43l70.01,116.96h-34.42l-54.3-90.9h-2.01l-54.47,90.9h-34.09L931.43,517.22z"/>
	<path class="st0" d="M1159.76,542.7l30.58-25.48v40.77l55.31-40.77h46.62l-78.53,58.15l78.53,58.82h-46.12l-55.81-41.77v41.77
		h-30.58V542.7z"/>
	<path class="st0" d="M776.86,418.93v-2.84c0-4.68-1.07-9.11-3.19-13.28c-2.13-4.18-5.04-7.82-8.74-10.94
		c-3.7-3.12-8.04-5.57-13.02-7.35c-4.98-1.78-10.31-2.67-15.99-2.67h-29.81v0h-60.39v0h-21.58V498.8h111.91
		c5.69,0,11.01-0.89,15.97-2.67c4.96-1.78,9.28-4.23,12.96-7.35c3.68-3.12,6.58-6.77,8.7-10.95c2.12-4.18,3.18-8.6,3.18-13.28v-2.84
		c0-4.12-0.78-7.99-2.34-11.61c-1.56-3.62-3.73-6.88-6.52-9.77c2.9-2.89,5.1-6.18,6.6-9.86
		C776.11,426.78,776.86,422.94,776.86,418.93z M746.28,418.93c0,2.45-1,4.51-3.01,6.18c-2.01,1.67-4.46,2.51-7.35,2.51h-60.56v25.73
		h60.56c3.12,0,5.62,0.84,7.52,2.51c1.89,1.67,2.84,3.62,2.84,5.85v2.84c0,2.34-1,4.34-3,6.01c-2,1.67-4.45,2.51-7.34,2.51h-81.23
		v-65.51h30.24v0.01h50.96c2.9,0,5.35,0.84,7.35,2.51c2,1.67,3.01,3.68,3.01,6.02V418.93z"/>
	<path class="st0" d="M1127.94,538.44c-2.12-4.23-5.04-7.91-8.77-11.03c-3.73-3.12-8.08-5.6-13.03-7.44
		c-4.96-1.84-10.28-2.76-15.96-2.76h-81.72l16.9,26.07h64.82c2.9,0,5.35,0.84,7.35,2.51c2.01,1.67,3.01,3.73,3.01,6.18v14.7
		c0,2.45-1,4.54-3.01,6.27c-2.01,1.73-4.46,2.59-7.35,2.59h-43.78l38.1,58.65h34.59l-21.39-33.25c4.79-0.78,9.21-2.2,13.28-4.26
		c4.06-2.06,7.6-4.6,10.61-7.6c3.01-3.01,5.35-6.43,7.02-10.28c1.67-3.84,2.51-7.88,2.51-12.11v-14.7
		C1131.11,547.19,1130.05,542.68,1127.94,538.44z"/>
	<g>
		<path d="M627.25,668.41h7.74c6.05,0,9.6,3.61,9.6,9.84v11.82c0,6.27-3.56,9.93-9.56,9.93h-7.78V668.41z M635.03,695.67
			c3.2,0,5.02-1.94,5.02-5.69v-11.64c0-3.7-1.78-5.6-5.02-5.6h-3.29v22.92H635.03z"/>
		<path d="M671.84,695.71V700h-15.7v-31.59h15.25v4.29h-10.76v9.16h9.92v4.2h-9.92v9.66H671.84z"/>
		<path d="M680.91,691.34h4.58c0.04,3.25,1.78,4.83,4.54,4.83c2.98,0,4.45-1.8,4.45-4.33c0-6.27-13.03-6.63-13.03-16.02
			c0-4.56,3.29-7.99,8.54-7.99c5.34,0,8.54,3.47,8.67,8.84h-4.58c-0.09-3.02-1.65-4.47-4.05-4.47c-2.53,0-4,1.44-4,3.7
			c0,6.18,13.07,6.18,13.07,15.97c0,4.69-3.25,8.71-9.07,8.71C684.51,700.59,680.95,697.11,680.91,691.34z"/>
		<path d="M713.81,668.41V700h-4.49v-31.59H713.81z"/>
		<path d="M725.32,690.61v-12.86c0-6.41,3.47-9.84,9.12-9.84c5.51,0,8.85,3.38,9.07,9.61h-4.45c-0.18-3.65-1.78-5.23-4.62-5.23
			s-4.54,1.67-4.54,5.51v12.81c0,3.84,1.78,5.51,4.67,5.51c2.98,0,4.76-1.67,4.76-5.28v-3.97h-4.94v-4.06h9.34v8.03
			c-0.09,6.18-3.6,9.66-9.21,9.66C728.93,700.5,725.32,697.02,725.32,690.61z"/>
		<path d="M773.03,668.41V700h-4.49l-6.94-15.48c-0.93-2.35-2.22-5.64-2.98-7.67l-0.13,0.09c0.31,3.16,0.53,7.9,0.53,10.88V700
			h-4.45v-31.59h4.49l7.16,16.11c0.93,2.12,2.09,5.05,2.85,6.95l0.13-0.09c-0.36-3.11-0.62-7.85-0.62-10.65v-12.32H773.03z"/>
		<path d="M805.84,689.62l-7.56-21.21h4.67l3.51,10.51c0.44,1.35,1.11,3.39,1.56,4.96h0.09l1.6-5.05l3.47-10.42h4.71l-7.56,21.21
			V700h-4.49V689.62z"/>
		<path d="M826.42,689.98v-11.55c0-6.59,3.56-10.6,9.52-10.6c5.96,0,9.52,4.02,9.52,10.6v11.55c0,6.59-3.56,10.6-9.52,10.6
			C829.98,700.59,826.42,696.57,826.42,689.98z M840.83,689.98v-11.55c0-3.97-1.69-6.14-4.89-6.14c-3.25,0-4.89,2.17-4.89,6.14
			v11.55c0,3.97,1.65,6.14,4.89,6.14C839.14,696.12,840.83,693.95,840.83,689.98z"/>
		<path d="M856.48,690.25v-21.84h4.62v21.84c0,3.93,1.73,5.78,4.58,5.78c2.8,0,4.54-1.85,4.54-5.78v-21.84h4.62v21.84
			c0,6.54-3.6,10.2-9.16,10.2C860.08,700.45,856.48,696.8,856.48,690.25z"/>
		<path d="M894.09,688.54h-2.8V700h-4.49v-31.59h8.05c5.96,0,9.34,3.61,9.34,9.88c0,4.92-2.05,8.3-5.6,9.61l6.76,12.09h-4.98
			L894.09,688.54z M891.29,684.21h3.47c3.16,0,4.8-2.08,4.8-5.82s-1.65-5.64-4.76-5.64h-3.51V684.21z"/>
		<path d="M931.21,668.41h7.74c6.05,0,9.6,3.61,9.6,9.84v11.82c0,6.27-3.56,9.93-9.56,9.93h-7.78V668.41z M938.99,695.67
			c3.2,0,5.02-1.94,5.02-5.69v-11.64c0-3.7-1.78-5.6-5.02-5.6h-3.29v22.92H938.99z"/>
		<path d="M967.4,688.54h-2.8V700h-4.49v-31.59h8.05c5.96,0,9.34,3.61,9.34,9.88c0,4.92-2.05,8.3-5.6,9.61l6.76,12.09h-4.98
			L967.4,688.54z M964.6,684.21h3.47c3.16,0,4.8-2.08,4.8-5.82s-1.64-5.64-4.76-5.64h-3.51V684.21z"/>
		<path d="M1004.44,695.71V700h-15.7v-31.59h15.25v4.29h-10.76v9.16h9.92v4.2h-9.92v9.66H1004.44z"/>
		<path d="M1027.02,693.64h-8.23l-1.42,6.36h-4.71l7.83-31.59h4.85l7.83,31.59h-4.67L1027.02,693.64z M1026.09,689.4l-1.96-8.48
			c-0.44-2.08-0.93-5.1-1.16-6.77h-0.13c-0.22,1.67-0.67,4.69-1.16,6.77l-1.91,8.48H1026.09z"/>
		<path d="M1067.22,668.41V700h-4.4v-12.32c0.09-3.61,0.18-6.9,0.36-10.2l-0.18-0.09c-0.89,2.53-1.96,5.42-3.02,8.3l-2.71,7.18
			h-4.45l-2.71-7.18c-1.07-2.89-2.13-5.78-3.02-8.3l-0.18,0.09c0.13,3.3,0.27,6.59,0.35,10.2V700h-4.4v-31.59h4.58l5.25,12.82
			c0.71,1.8,1.78,4.83,2.27,6.27h0.18c0.49-1.44,1.56-4.47,2.27-6.27l5.25-12.82H1067.22z"/>
		<path d="M1077.7,691.34h4.58c0.04,3.25,1.78,4.83,4.53,4.83c2.98,0,4.45-1.8,4.45-4.33c0-6.27-13.03-6.63-13.03-16.02
			c0-4.56,3.29-7.99,8.54-7.99c5.34,0,8.54,3.47,8.67,8.84h-4.58c-0.09-3.02-1.65-4.47-4.05-4.47c-2.53,0-4,1.44-4,3.7
			c0,6.18,13.07,6.18,13.07,15.97c0,4.69-3.25,8.71-9.07,8.71C1081.31,700.59,1077.75,697.11,1077.7,691.34z"/>
		<path d="M1152.31,668.41l-6.98,31.59h-4.8l-3.02-13.94c-0.67-2.98-1.29-7.58-1.47-10.15h-0.18c-0.22,2.57-0.84,7.17-1.51,10.15
			l-3.02,13.94h-4.8l-6.98-31.59h4.67l3.2,17.28c0.4,2.3,1.16,6.41,1.42,8.39h0.18c0.27-1.98,0.93-5.87,1.42-8.62l3.11-16.56h4.76
			l3.11,16.56c0.49,2.75,1.16,6.63,1.42,8.62h0.18c0.27-1.98,1.02-6.09,1.42-8.39l3.2-17.28H1152.31z"/>
		<path d="M1166.44,668.41V700h-4.49v-31.59H1166.44z"/>
		<path d="M1194.01,672.74h-6.49V700h-4.58v-27.26h-6.45v-4.33h17.52V672.74z"/>
		<path d="M1221.62,668.41V700h-4.49v-13.85h-8.8V700h-4.49v-31.59h4.49v13.45h8.8v-13.45H1221.62z"/>
		<path d="M1249.31,690.25v-21.84h4.62v21.84c0,3.93,1.73,5.78,4.58,5.78c2.8,0,4.54-1.85,4.54-5.78v-21.84h4.62v21.84
			c0,6.54-3.6,10.2-9.16,10.2C1252.92,700.45,1249.31,696.8,1249.31,690.25z"/>
		<path d="M1277.68,691.34h4.58c0.04,3.25,1.78,4.83,4.53,4.83c2.98,0,4.45-1.8,4.45-4.33c0-6.27-13.03-6.63-13.03-16.02
			c0-4.56,3.29-7.99,8.54-7.99c5.34,0,8.54,3.47,8.67,8.84h-4.58c-0.09-3.02-1.65-4.47-4.05-4.47c-2.53,0-4,1.44-4,3.7
			c0,6.18,13.07,6.18,13.07,15.97c0,4.69-3.25,8.71-9.07,8.71C1281.28,700.59,1277.72,697.11,1277.68,691.34z"/>
	</g>
	<path class="st1" d="M1095.55,454.85c0.05-4.36,3.33-7.76,7.75-8.15c4.2-0.37,8.18,0.58,12.1,1.86
		c9.39,3.05,18.18,7.45,26.87,12.05c1.1,0.58,1.6,0.44,2.4-0.5c4.22-5.01,8.44-10.03,12.87-14.85c8.6-9.35,17.23-18.68,26.05-27.82
		c9.54-9.89,19.48-19.38,30.41-27.77c4.66-3.58,9.45-6.98,15.02-9.07c2.72-1.02,5.5-1.6,8.38-0.85c2.52,0.66,4.65,1.96,4.92,4.82
		c0.12,1.22-0.1,2.71-0.74,3.71c-1.29,2.02-2.82,3.94-4.52,5.64c-4.71,4.73-9.7,9.18-14.3,14c-5.78,6.06-11.45,12.24-16.87,18.61
		c-10.57,12.42-19.74,25.85-28.05,39.87c-8.14,13.73-15.29,27.97-21.58,42.64c-1.58,3.68-3.09,7.38-4.56,11.11
		c-0.73,1.84-1.97,3.04-3.93,3.14c-1.82,0.09-3.07-0.95-3.97-2.55c-5.88-10.44-11.98-20.75-18.78-30.63
		c-6.82-9.91-14.48-19.1-23.21-27.38c-1.64-1.56-3.36-3.04-4.88-4.71c-0.75-0.82-1.12-1.99-1.66-3.01
		C1095.34,454.95,1095.45,454.9,1095.55,454.85z"/>
</g>
</svg>
